#!OML:ASF I:\Actors\actors\Patient Classification 2\Patient 1\Session 1\actor1.ASF
:FULLY-SPECIFIED
:DEGREES
421
root -0.569881 18.809 4.27426 15.1068 1.34635 4.99885
lowerback 32.2518 0.337996 8.63455
upperback 7.9297 3.67654 4.9448
thorax -7.59891 1.62427 -0.640735
lowerneck -10.7993 -14.3144 -13.6529
upperneck 11.7181 -19.3314 14.5241
head 8.17986 -8.85239 4.53883
rclavicle 1.59028e-015 -1.59028e-014
rhumerus 32.1214 -9.77875 -54.41
rradius 50.6155
rwrist -59.8532
rhand -7.41192 283.653
rfingers 7.12502
rthumb 18.4746 105.49
lclavicle 1.59028e-015 -1.59028e-014
lhumerus 35.2311 -49.5698 73.1494
lradius 82.2903
lwrist 54.071
lhand -23.4556 -0.183895
lfingers 7.12502
lthumb 3.00307 29.7747
rfemur -20.6692 -0.903833 6.91441
rtibia 15.01
rfoot -16.5818 -12.8112
rtoes -8.25712
lfemur -25.8979 -2.44871 -18.2845
ltibia 22.4724
lfoot -12.8557 7.24901
ltoes -55.6742
422
root -0.588064 18.8028 4.24342 15.5196 1.52135 5.2679
lowerback 32.6697 0.242218 8.70021
upperback 7.88998 3.64309 5.047
thorax -7.80947 1.59616 -0.56244
lowerneck -10.7673 -14.3232 -13.8173
upperneck 11.3892 -19.2999 14.6459
head 8.0921 -8.84815 4.61121
rclavicle -3.18055e-014 -3.33958e-014
rhumerus 33.5652 -10.7952 -54.5957
rradius 48.5189
rwrist -57.8325
rhand -7.19044 284.295
rfingers 7.12502
rthumb 18.6877 104.828
lclavicle -3.18055e-014 -3.33958e-014
lhumerus 36.8338 -49.2158 73.1669
lradius 80.849
lwrist 53.5661
lhand -23.2878 0.129923
lfingers 7.12502
lthumb 3.16517 30.0862
rfemur -21.4703 -1.27986 6.7307
rtibia 15.6011
rfoot -16.6707 -12.7171
rtoes -8.4282
lfemur -26.4945 -2.30712 -18.5375
ltibia 22.4551
lfoot -12.5512 6.97665
ltoes -55.7243
423
root -0.604808 18.7969 4.21547 15.872 1.68808 5.46073
lowerback 33.2171 0.150757 8.75397
upperback 7.79296 3.63794 5.18812
thorax -8.13428 1.57438 -0.448872
lowerneck -10.6386 -14.2828 -13.9021
upperneck 10.9895 -19.196 14.6523
head 7.93245 -8.82169 4.65563
rclavicle -3.18055e-014 3.18055e-015
rhumerus 34.4762 -11.3264 -54.5907
rradius 47.123
rwrist -56.3989
rhand -6.74953 284.088
rfingers 7.12502
rthumb 19.1117 104.993
lclavicle -3.18055e-014 3.18055e-015
lhumerus 37.8184 -49.0287 73.255
lradius 79.6897
lwrist 53.4303
lhand -23.8569 -0.677849
lfingers 7.12502
lthumb 2.61557 29.2859
rfemur -22.1716 -1.57431 6.61786
rtibia 16.1408
rfoot -16.7756 -12.6726
rtoes -8.62564
lfemur -27.0006 -2.55468 -18.606
ltibia 22.4439
lfoot -12.4754 7.05044
ltoes -55.7199
424
root -0.620053 18.7932 4.19347 16.1921 1.85531 5.57652
lowerback 33.6014 0.0244305 8.96466
upperback 7.82884 3.60187 5.26218
thorax -8.23095 1.54966 -0.469232
lowerneck -10.7768 -14.2702 -13.8853
upperneck 10.6557 -19.1273 14.6636
head 7.83652 -8.79281 4.66367
rclavicle 4.77083e-014 5.40694e-014
rhumerus 35.0302 -11.5631 -54.5377
rradius 46.4631
rwrist -55.7621
rhand -6.96153 283.745
rfingers 7.12502
rthumb 18.9078 105.356
lclavicle 4.77083e-014 5.40694e-014
lhumerus 38.5862 -48.9372 72.9939
lradius 78.9011
lwrist 53.6397
lhand -24.7318 -1.44096
lfingers 7.12502
lthumb 1.77055 28.5314
rfemur -22.7921 -1.88715 6.60284
rtibia 16.6148
rfoot -16.8264 -12.6162
rtoes -8.77109
lfemur -27.4374 -2.94783 -18.5441
ltibia 22.4189
lfoot -12.487 7.23185
ltoes -55.5822
425
root -0.633919 18.7911 4.18118 16.555 1.97893 5.68712
lowerback 33.7763 -0.0505382 9.00492
upperback 7.84576 3.55416 5.36507
thorax -8.28543 1.52349 -0.365545
lowerneck -10.7136 -14.168 -13.8087
upperneck 10.3243 -18.9592 14.6261
head 7.68122 -8.72724 4.67836
rclavicle -2.54444e-014 2.70347e-014
rhumerus 34.8889 -11.2139 -54.3702
rradius 46.6181
rwrist -55.9931
rhand -7.00937 284.134
rfingers 7.12502
rthumb 18.8618 104.971
lclavicle -2.54444e-014 2.70347e-014
lhumerus 38.4058 -48.8796 73.0444
lradius 78.5895
lwrist 53.785
lhand -25.1645 -1.69067
lfingers 7.12502
lthumb 1.3527 28.2848
rfemur -23.3864 -2.19165 6.58738
rtibia 16.9824
rfoot -16.8124 -12.5216
rtoes -8.64688
lfemur -27.8758 -3.16785 -18.5244
ltibia 22.3756
lfoot -12.4282 7.31094
ltoes -55.4907
426
root -0.647508 18.79 4.17587 16.8718 2.05595 5.75739
lowerback 33.8597 -0.0955634 9.00699
upperback 7.90275 3.51335 5.45172
thorax -8.26222 1.50537 -0.260061
lowerneck -10.7376 -14.0585 -13.6735
upperneck 10.0811 -18.7981 14.6252
head 7.56982 -8.6531 4.68865
rclavicle 3.18055e-014 6.36111e-015
rhumerus 34.1803 -10.4952 -54.3003
rradius 47.4471
rwrist -56.7184
rhand -7.54045 284.669
rfingers 7.12502
rthumb 18.351 104.486
lclavicle 3.18055e-014 6.36111e-015
lhumerus 37.564 -48.9604 73.0676
lradius 78.7494
lwrist 54.0315
lhand -25.1216 -2.36976
lfingers 7.12502
lthumb 1.39416 27.6054
rfemur -23.8608 -2.37615 6.58823
rtibia 17.2379
rfoot -16.8016 -12.4323
rtoes -8.19815
lfemur -28.239 -3.21887 -18.514
ltibia 22.3406
lfoot -12.351 7.32782
ltoes -55.522
427
root -0.659413 18.7907 4.1755 17.1258 2.10736 5.77987
lowerback 33.9045 -0.168882 9.09885
upperback 7.97077 3.45312 5.46806
thorax -8.20004 1.47984 -0.266978
lowerneck -10.7774 -13.9801 -13.6858
upperneck 9.92839 -18.6997 14.8342
head 7.53803 -8.59608 4.77294
rclavicle -9.54166e-015 -1.59028e-014
rhumerus 33.0447 -9.4908 -54.4618
rradius 48.7601
rwrist -57.6388
rhand -8.07065 285.035
rfingers 7.12502
rthumb 17.8409 104.166
lclavicle -9.54166e-015 -1.59028e-014
lhumerus 36.1235 -49.1742 73.0322
lradius 79.28
lwrist 54.0758
lhand -25.0686 -3.22635
lfingers 7.12502
lthumb 1.44531 26.7485
rfemur -24.1937 -2.46161 6.62343
rtibia 17.3866
rfoot -16.8459 -12.3953
rtoes -8.06319
lfemur -28.5232 -3.11494 -18.5106
ltibia 22.329
lfoot -12.2683 7.26281
ltoes -55.5645
428
root -0.668333 18.7923 4.17884 17.3555 2.14772 5.77905
lowerback 33.8523 -0.239908 9.28896
upperback 8.03729 3.40927 5.42394
thorax -8.08953 1.464 -0.392885
lowerneck -10.6744 -13.9276 -13.6361
upperneck 9.7232 -18.6501 15.0141
head 7.46264 -8.57048 4.84035
rclavicle 3.18055e-015 -1.27222e-014
rhumerus 31.4293 -8.31494 -54.7331
rradius 50.5564
rwrist -58.9446
rhand -9.20747 284.986
rfingers 7.12502
rthumb 16.7467 104.311
lclavicle 3.18055e-015 -1.27222e-014
lhumerus 34.3005 -49.4948 72.9142
lradius 80.1653
lwrist 53.6976
lhand -24.9023 -2.90106
lfingers 7.12502
lthumb 1.60597 27.0726
rfemur -24.4236 -2.43192 6.65089
rtibia 17.417
rfoot -16.9578 -12.4424
rtoes -7.79397
lfemur -28.7696 -3.04572 -18.4843
ltibia 22.3313
lfoot -12.2214 7.23611
ltoes -55.607
429
root -0.674162 18.7951 4.18536 17.4347 2.21954 5.72884
lowerback 33.8876 -0.301027 9.55578
upperback 8.11183 3.41716 5.41297
thorax -7.99646 1.47047 -0.541633
lowerneck -10.49 -13.9188 -13.4412
upperneck 9.45746 -18.6478 14.9733
head 7.32186 -8.58299 4.8151
rclavicle -9.22361e-014 -7.15625e-014
rhumerus 29.3312 -6.93972 -54.9521
rradius 52.8763
rwrist -60.614
rhand -12.1053 284.699
rfingers 7.12502
rthumb 13.9555 104.813
lclavicle -9.22361e-014 -7.15625e-014
lhumerus 32.1727 -49.925 72.8057
lradius 81.2542
lwrist 53.1214
lhand -24.4474 -2.20674
lfingers 7.12502
lthumb 2.04531 27.7632
rfemur -24.4278 -2.34708 6.71806
rtibia 17.3509
rfoot -17.0402 -12.546
rtoes -7.47027
lfemur -28.8432 -3.07146 -18.3948
ltibia 22.3327
lfoot -12.226 7.27773
ltoes -55.6627
430
root -0.676988 18.7985 4.19678 17.3253 2.32192 5.63507
lowerback 34.1711 -0.398686 9.93774
upperback 8.10661 3.45562 5.37104
thorax -7.95546 1.48549 -0.740152
lowerneck -10.2754 -13.9704 -13.4279
upperneck 9.19431 -18.7303 15.1011
head 7.22587 -8.6325 4.8561
rclavicle 6.36111e-014 3.97569e-014
rhumerus 26.8711 -5.39861 -55.2642
rradius 55.5901
rwrist -62.3119
rhand -10.8997 285.258
rfingers 7.12502
rthumb 15.1171 104.17
lclavicle 6.36111e-014 3.97569e-014
lhumerus 29.4197 -50.4503 73.014
lradius 82.4579
lwrist 52.5661
lhand -24.1362 -2.53625
lfingers 7.12502
lthumb 2.34582 27.4306
rfemur -24.1742 -2.2655 6.83715
rtibia 17.2233
rfoot -17.097 -12.6745
rtoes -7.79856
lfemur -28.6988 -3.10926 -18.2775
ltibia 22.327
lfoot -12.2362 7.33289
ltoes -55.6899
431
root -0.677662 18.801 4.21279 17.2188 2.40103 5.5619
lowerback 34.3139 -0.464224 10.2654
upperback 8.16747 3.4893 5.29982
thorax -7.90633 1.5023 -0.992382
lowerneck -10.0603 -14.0569 -13.3889
upperneck 8.97282 -18.8806 15.3083
head 7.16003 -8.70733 4.90684
rclavicle 3.18055e-015 -3.18055e-015
rhumerus 24.2418 -3.78988 -55.8335
rradius 58.5156
rwrist -64.168
rhand -11.2607 285.622
rfingers 7.12502
rthumb 14.7693 103.832
lclavicle 3.18055e-015 -3.18055e-015
lhumerus 25.9921 -50.8792 73.5858
lradius 83.9174
lwrist 51.9772
lhand -24.0872 -2.59624
lfingers 7.12502
lthumb 2.39317 27.3701
rfemur -23.8776 -2.11478 6.90067
rtibia 17.0439
rfoot -17.2055 -12.8069
rtoes -8.18821
lfemur -28.5373 -3.0533 -18.22
ltibia 22.3147
lfoot -12.2197 7.30704
ltoes -55.679
432
root -0.675486 18.8042 4.23286 17.1835 2.46579 5.5463
lowerback 34.2898 -0.489983 10.426
upperback 8.20249 3.50085 5.26581
thorax -7.84143 1.51106 -1.11217
lowerneck -9.79059 -14.1232 -13.3342
upperneck 8.77236 -18.9925 15.3831
head 7.06961 -8.77405 4.92362
rclavicle -1.90833e-014 6.36111e-015
rhumerus 21.504 -1.9459 -56.5119
rradius 61.5776
rwrist -66.198
rhand -12.3386 286.288
rfingers 7.12502
rthumb 13.7307 103.239
lclavicle -1.90833e-014 6.36111e-015
lhumerus 22.2336 -51.1989 74.2597
lradius 85.525
lwrist 51.4095
lhand -24.2627 -2.20541
lfingers 7.12502
lthumb 2.22364 27.7628
rfemur -23.6205 -1.97699 6.88015
rtibia 16.8283
rfoot -17.2778 -12.8953
rtoes -8.29386
lfemur -28.4323 -2.87946 -18.2793
ltibia 22.3013
lfoot -12.2085 7.18785
ltoes -55.6643
433
root -0.670684 18.8091 4.25644 17.1229 2.53295 5.54317
lowerback 34.2197 -0.479324 10.5452
upperback 8.23834 3.54132 5.27071
thorax -7.76254 1.53416 -1.17968
lowerneck -9.45642 -14.1949 -13.4474
upperneck 8.47971 -19.1071 15.6156
head 6.97416 -8.84441 5.01808
rclavicle -5.40694e-014 -5.725e-014
rhumerus 18.5919 -0.0265446 -57.3329
rradius 64.6467
rwrist -67.7763
rhand -13.1423 287.057
rfingers 7.12502
rthumb 12.956 102.521
lclavicle -5.40694e-014 -5.725e-014
lhumerus 18.4768 -51.7265 74.7369
lradius 87.0867
lwrist 51.0363
lhand -24.5906 -2.96396
lfingers 7.12502
lthumb 1.90697 27.0073
rfemur -23.3235 -1.83548 6.83855
rtibia 16.6184
rfoot -17.3098 -12.9971
rtoes -8.49922
lfemur -28.2836 -2.58211 -18.4175
ltibia 22.2771
lfoot -12.1776 7.00183
ltoes -55.7232
434
root -0.665228 18.814 4.28215 17.024 2.59406 5.48915
lowerback 34.0567 -0.448082 10.8643
upperback 8.37501 3.63799 5.18194
thorax -7.508 1.59517 -1.46234
lowerneck -9.34051 -14.3542 -13.459
upperneck 8.09562 -19.3462 16.0141
head 6.9154 -8.95502 5.11644
rclavicle -6.36111e-015 3.18055e-015
rhumerus 15.6614 1.57474 -58.4758
rradius 67.5368
rwrist -68.8322
rhand -13.0474 287.535
rfingers 7.12502
rthumb 13.0475 102.037
lclavicle -6.36111e-015 3.18055e-015
lhumerus 15.0096 -52.4411 74.8364
lradius 88.7109
lwrist 50.766
lhand -24.7161 -3.98244
lfingers 7.12502
lthumb 1.7858 25.9898
rfemur -22.9866 -1.42942 6.79587
rtibia 16.4335
rfoot -17.554 -13.2464
rtoes -8.5468
lfemur -28.0713 -2.19913 -18.5238
ltibia 22.2228
lfoot -12.0879 6.76376
ltoes -55.8815
435
root -0.658901 18.8174 4.3102 16.9362 2.63215 5.42458
lowerback 33.8796 -0.36031 11.0305
upperback 8.42335 3.76636 5.14507
thorax -7.35996 1.66425 -1.62568
lowerneck -9.06072 -14.4811 -13.4244
upperneck 7.70887 -19.5403 16.2704
head 6.8012 -9.06026 5.18241
rclavicle -3.18055e-014 -3.49861e-014
rhumerus 12.6641 3.28317 -59.7851
rradius 70.1655
rwrist -70.0802
rhand -11.8877 288.336
rfingers 7.12502
rthumb 14.1652 101.161
lclavicle -3.18055e-014 -3.49861e-014
lhumerus 11.1646 -53.1024 75.2705
lradius 90.3894
lwrist 50.6743
lhand -24.744 -4.31067
lfingers 7.12502
lthumb 1.75879 25.6618
rfemur -22.6631 -0.881513 6.73419
rtibia 16.2636
rfoot -17.9408 -13.5684
rtoes -8.54685
lfemur -27.8367 -1.86385 -18.5889
ltibia 22.1356
lfoot -12.0388 6.55932
ltoes -56.0237
